<?xml version="1.0" encoding="UTF-8" standalone="no"?>
<!-- Created with Inkscape (http://www.inkscape.org/) -->

<svg
   width="210mm"
   height="297mm"
   viewBox="0 0 210 297"
   version="1.1"
   id="svg5"
   inkscape:version="1.1.2 (0a00cf5339, 2022-02-04)"
   sodipodi:docname="favicon.svg"
   xmlns:inkscape="http://www.inkscape.org/namespaces/inkscape"
   xmlns:sodipodi="http://sodipodi.sourceforge.net/DTD/sodipodi-0.dtd"
   xmlns="http://www.w3.org/2000/svg"
   xmlns:svg="http://www.w3.org/2000/svg">
  <sodipodi:namedview
     id="namedview7"
     pagecolor="#ffffff"
     bordercolor="#666666"
     borderopacity="1.0"
     inkscape:pageshadow="2"
     inkscape:pageopacity="0.0"
     inkscape:pagecheckerboard="0"
     inkscape:document-units="mm"
     showgrid="false"
     inkscape:zoom="0.46680696"
     inkscape:cx="396.30943"
     inkscape:cy="561.25984"
     inkscape:window-width="1366"
     inkscape:window-height="706"
     inkscape:window-x="0"
     inkscape:window-y="34"
     inkscape:window-maximized="1"
     inkscape:current-layer="layer1" />
  <defs
     id="defs2" />
  <g
     inkscape:label="Camada 1"
     inkscape:groupmode="layer"
     id="layer1">
    <path
       d="m 167.74833,81.00479 -51.40854,19.76438 0.60854,-7.752297 c 0.26458,-3.386666 -3.38667,-5.688541 -6.35,-3.995208 L 63.925827,116.06208 c -16.589375,9.60438 -26.802292,27.305 -26.802292,46.46083 0,29.65979 24.050625,53.71042 53.710417,53.71042 19.155838,0 36.882918,-10.21291 46.487298,-26.8023 l 27.01396,-46.67249 c 1.71979,-2.93688 -0.58209,-6.61458 -3.99521,-6.35 l -7.75229,0.60854 19.76437,-51.40854 c 0.15875,-0.396875 0.23813,-0.846667 0.23813,-1.27 0,-1.984375 -1.5875,-3.571875 -3.57188,-3.571875 -0.44979,0 -0.87312,0.07937 -1.27,0.238125 z m -79.824795,50.56187 a 33.866667,33.866667 0 1 1 0,67.73334 33.866667,33.866667 0 1 1 0,-67.73334 z m 0,25.4 a 8.4666667,8.4666667 0 1 0 -16.933333,0 8.4666667,8.4666667 0 1 0 16.933333,0 z m 4.233333,25.4 a 4.2333335,4.2333335 0 1 0 0,-8.46666 4.2333335,4.2333335 0 1 0 0,8.46666 z"
       id="path49"
       style="stroke-width:0.264583;fill:#000000" />
  </g>
</svg>
